<svg viewBox="0 0 232 114" fill="none" xmlns="http://www.w3.org/2000/svg">
<g clip-path="url(#clip0_1289_18152)">
<path d="M215.275 -2.50017L116.374 97.7196L17.4727 -2.50017" stroke="currentColor" stroke-width="7.91209" stroke-miterlimit="16"/>
<path d="M188.903 -2.50025L116.375 70.0272L43.8477 -2.50025" stroke="currentColor" stroke-width="7.91209" stroke-miterlimit="16"/>
<path d="M155.937 -2.50002L116.377 37.0604L76.8164 -2.50002" stroke="currentColor" stroke-width="7.91209" stroke-miterlimit="16"/>
<path d="M125.606 0.137273L116.375 9.36804L107.145 0.137273H125.606Z" stroke="currentColor" stroke-width="7.91209" stroke-miterlimit="16"/>
<path d="M99.2358 117.5L0.334687 17.2804L-98.5664 117.5" stroke="currentColor" stroke-width="7.91209" stroke-miterlimit="16"/>
<path d="M72.8635 117.5L0.336058 44.9728L-72.1914 117.5" stroke="currentColor" stroke-width="7.91209" stroke-miterlimit="16"/>
<path d="M39.8982 117.5L0.33778 77.9396L-39.2227 117.5" stroke="currentColor" stroke-width="7.91209" stroke-miterlimit="16"/>
<path d="M9.56701 114.863L0.336238 105.632L-8.89453 114.863H9.56701Z" stroke="currentColor" stroke-width="7.91209" stroke-miterlimit="16"/>
<path d="M331.322 117.5L232.421 17.2804L133.52 117.5" stroke="currentColor" stroke-width="7.91209" stroke-miterlimit="16"/>
<path d="M304.949 117.5L232.422 44.9728L159.895 117.5" stroke="currentColor" stroke-width="7.91209" stroke-miterlimit="16"/>
<path d="M271.984 117.5L232.424 77.9396L192.863 117.5" stroke="currentColor" stroke-width="7.91209" stroke-miterlimit="16"/>
<path d="M241.653 114.863L232.422 105.632L223.191 114.863H241.653Z" stroke="currentColor" stroke-width="7.91209" stroke-miterlimit="16"/>
</g>
<defs>
<clipPath id="clip0_1289_18152">
<rect width="232" height="114" fill="white"/>
</clipPath>
</defs>
</svg>
